<svg xmlns="http://www.w3.org/2000/svg" viewBox="0 0 256 252">
  <path d="M236.94 194.768c-4.348 16.29-27.2 22.488-40.7 24.888-16.606 2.95-34.352 2.07-50.628-2.416-10.57-2.91-20.6-7.6-29.552-13.766l-.426-.298 4.394-5.336c8.204 5.27 17.1 9.3 26.476 12.04 15.21 4.45 31.5 5.54 47.14 2.42 10.14-2.02 24.97-6.36 28.06-17.56 2.58-9.36-5.76-15.96-13.24-19.09-10.62-4.45-22.18-6.3-33.42-8.96-10.55-2.5-21.04-5.72-30.22-11.58-7.27-4.64-12.78-11.74-13.63-20.46-1.05-10.77 3.91-21.37 12.17-28.09 8.79-7.15 20.19-10.41 31.35-11.24 12.41-.92 24.92.82 36.5 5.07 6.64 2.44 13.12 5.87 18.42 10.68l-4.87 5.31c-7.95-6.82-17.9-10.64-28.2-12.38-10.94-1.85-22.42-1.47-33 2.08-7.95 2.67-15.53 7.98-17.68 16.56-1.82 7.28 2.53 14.63 8.67 18.55 8.38 5.35 18.27 7.4 27.83 9.7 11.24 2.7 22.66 5.1 33.21 10.26 7.12 3.48 13.68 8.74 16.33 16.49z" fill="#00618a"/>
  <path d="M5.951 109.8c4.49-16.43 20.63-25.76 35.83-30.27 17.55-5.21 36.37-5.67 54.38-1.6 9.48 2.14 18.72 5.49 27.04 10.53l.426.258-4.29 5.34c-10.09-5.94-21.1-9.74-32.59-11.5-14.58-2.23-29.8-1.23-43.78 3.33-10.08 3.28-21.3 8.52-25.82 18.84-4.26 9.72 2.22 19.45 10.44 24.44 9.15 5.56 19.78 8.1 30.16 10.7 11.47 2.87 23.1 5.56 33.56 11.43 7.84 4.4 14.47 11.77 15.21 21.03.8 9.94-4.35 19.79-11.82 26.16-8.86 7.56-20.66 10.78-32.14 11.94-13.56 1.37-27.37-.42-40.13-5.1-7.72-2.83-15.24-6.75-21.52-12.1l5.15-5.46c8.7 7.86 19.95 12.27 31.44 14.17 12.08 2 24.7 1.26 36.27-2.96 8.04-2.94 16.25-8.37 18.55-17.12 1.74-6.65-1.65-13.89-7.11-17.93-7.72-5.72-17.37-7.98-26.65-10.39-11.58-3-23.35-5.73-33.93-11.53-6.77-3.7-12.62-9.03-15.18-16.45-1.96-5.72-1.97-12.06-.36-17.84z" fill="#e48e00"/>
  <path d="M147.679 25.4l-5.484-3.412L128.5 5.214 114.805 21.988l-5.484 3.412L128.5 45.228z" fill="#00618a"/>
  <path d="M128.5 228.4l19.179-19.828 5.484-3.412L128.5 225.028l-24.679-19.868 5.484 3.412z" fill="#e48e00"/>
</svg>
