<svg xmlns="http://www.w3.org/2000/svg" viewBox="0 0 256 289">
  <path d="M128 288.464c-7.075 0-14.15-1.838-20.39-5.513L38.16 242.596c-12.635-7.01-20.39-20.264-20.39-34.402V127.351c0-14.138 7.755-27.393 20.39-34.402L107.61 52.594c12.48-6.95 28.3-6.95 40.78 0l69.45 40.355c12.635 7.01 20.39 20.264 20.39 34.402v80.843c0 14.138-7.755 27.393-20.39 34.402l-69.45 40.355c-6.24 3.675-13.315 5.513-20.39 5.513" fill="#539e43"/>
  <path d="M112.457 210.09c-2.197 0-4.347-.193-6.4-.583l-20.1-3.575-7.236 40.248-21.58-4.725 21.12-96.153 28.69 5.155c12.193 2.19 21.563 6.675 27.833 13.323 6.32 6.704 8.4 15.623 6.18 26.498-2.77 13.5-9.713 23.088-20.632 28.486-6.24 3.082-13.377 4.625-21.225 5.003-.896.043-1.78.065-2.65.065v.258zm4.103-46.217l-10.71 48.793c.764.097 1.538.15 2.323.15 6.783 0 12.433-1.538 16.808-4.575 4.624-3.21 7.817-8.14 9.49-14.65 1.598-6.189 1.07-11.13-1.57-14.674-2.758-3.717-7.646-6.23-14.523-7.466l-1.818-.327v-7.25z" fill="#fff"/>
</svg>
