<svg xmlns="http://www.w3.org/2000/svg" viewBox="0 0 256 256">
  <defs>
    <radialGradient id="a" cx=".837" cy="-.034" r="1.092" gradientTransform="matrix(1 0 0 .485 0 -.017)">
      <stop offset="0" stop-color="#fff"/>
      <stop offset=".5" stop-color="#4c6b97"/>
      <stop offset="1" stop-color="#231f20"/>
    </radialGradient>
  </defs>
  <ellipse cx="128" cy="146.959" rx="122.634" ry="62.362" fill="#aca0ae"/>
  <ellipse cx="128" cy="127.5" rx="128" ry="66.5" fill="#777bb3"/>
  <path d="M88.122 76.27c5.885 0 10.296 1.376 13.091 4.093 2.757 2.68 3.82 6.696 3.157 11.928-.687 5.447-2.823 9.573-6.35 12.264-3.478 2.652-8.333 3.997-14.432 3.997H74.06l-3.37 17.312H61.73l8.962-49.594h17.43zm-8.09 25.27h7.426c3.636 0 6.552-.835 8.665-2.482 2.142-1.67 3.428-4.188 3.823-7.484.352-2.88-.118-5.007-1.396-6.318-1.292-1.323-3.639-1.995-6.965-1.995h-7.994l-3.559 18.279z" fill="#fff"/>
  <path d="M137.283 76.27c5.884 0 10.296 1.376 13.091 4.093 2.757 2.68 3.82 6.696 3.157 11.928-.687 5.447-2.823 9.573-6.35 12.264-3.478 2.652-8.333 3.997-14.432 3.997h-9.529l-3.37 17.312h-8.96l8.963-49.594h17.43zm-8.09 25.27h7.425c3.636 0 6.552-.835 8.666-2.482 2.142-1.67 3.427-4.188 3.822-7.484.353-2.88-.117-5.007-1.396-6.318-1.291-1.323-3.638-1.995-6.964-1.995h-7.995l-3.558 18.279z" fill="#fff"/>
  <path d="M175.7 125.864h-8.887l3.588-18.278h-10.593c-3.287 0-5.534.677-6.681 2.012-1.172 1.363-1.91 3.87-2.193 7.45-.233 2.852.103 4.787 1 5.746.908.972 2.878 1.463 5.852 1.463h4.559l-1.575 8.031h-4.74c-5.576 0-9.6-1.37-11.947-4.07-2.371-2.726-3.188-6.897-2.425-12.395.703-5.077 2.762-9.097 6.117-11.938 3.384-2.867 7.796-4.32 13.108-4.32h18.49l-3.673 26.299z" fill="#fff"/>
</svg>
