<svg xmlns="http://www.w3.org/2000/svg" viewBox="0 0 109 113">
  <path d="M63.708 110.284c-2.86 3.601-8.658 7.236-14.31 7.236-5.652 0-8.547-3.635-8.547-8.438 0-9.873 8.986-15.596 22.857-15.596v16.798zm14.567 2.72c0 .138-.076.207-.138.276-.13.138-.345.07-.345.07-5.14.93-6.08-1.452-6.08-1.452V92.685c0-4.869-1.244-8.504-3.73-10.978-1.831-1.831-4.384-2.72-6.525-3.24a37.24 37.24 0 00-2.384-.547c-.73-.136-1.466-.263-2.208-.367.53-.056 1.046-.127 1.527-.218 11.02-1.98 16.74-8.918 16.74-17.698 0-13.47-10.84-19.4-26.848-19.4H22.57L0 113.013h18.134l8.507-43.756h12.16c8.714 0 12.16 4.108 12.16 11.384v22.645c0 5.35.76 8.92 2.84 11.28 2.59 2.94 7.1 3.29 10.78 2.44 3.47-.8 6.53-2.64 8.63-4.96l5.07-6.77z" fill="#3ecf8e"/>
  <path d="M77.345 0l-5.49 28.228C69.09 17.06 59.34 13.52 50.474 13.52c-17.64 0-33.79 15.64-33.79 35.96 0 14.26 8.55 22.86 20.48 22.86 5.8 0 12.51-2.87 17.28-7.4l-1.24 6.37h17.77L84.258 0H77.345z" fill="#3ecf8e"/>
</svg>
